<?xml version="1.0" encoding="utf-8"?>
<!-- Generator: Adobe Illustrator 24.1.3, SVG Export Plug-In . SVG Version: 6.00 Build 0)  -->
<svg version="1.1" id="Layer_1" xmlns="http://www.w3.org/2000/svg" xmlns:xlink="http://www.w3.org/1999/xlink" x="0px" y="0px"
	 viewBox="0 0 480 122" style="enable-background:new 0 0 480 122;" xml:space="preserve">
<style type="text/css">
	.st0{fill:#005AA6;}
	.st1{fill:url(#SVGID_1_);}
	.st2{fill:url(#SVGID_2_);}
	.st3{fill:url(#SVGID_3_);}
</style>
<g>
	<g>
		<path class="st0" d="M171.09,40.79c11.24,0,20.23,9.05,20.23,20.28c0,11.24-8.99,20.17-20.23,20.17s-20.17-8.93-20.17-20.17
			C150.91,49.83,159.85,40.79,171.09,40.79z M171.09,75.79c8.03,0,14.61-6.69,14.61-14.72c0-7.98-6.57-14.83-14.61-14.83
			c-7.98,0-14.55,6.86-14.55,14.83C156.53,69.1,163.11,75.79,171.09,75.79z"/>
		<path class="st0" d="M204.4,46.63h-9.16c-0.62,0-1.07-0.51-1.07-1.07v-3.15c0-0.56,0.45-1.07,1.07-1.07h24.16
			c0.62,0,1.07,0.51,1.07,1.07v3.15c0,0.56-0.45,1.07-1.07,1.07h-9.16v32.98c0,0.56-0.51,1.07-1.07,1.07h-3.71
			c-0.56,0-1.07-0.51-1.07-1.07V46.63z"/>
		<path class="st0" d="M219.85,79.22L237.1,41.4c0.17-0.34,0.67-0.62,0.96-0.62h0.56c0.28,0,0.79,0.28,0.96,0.62l17.14,37.81
			c0.34,0.73-0.11,1.46-0.96,1.46h-3.54c-0.67,0-1.07-0.34-1.29-0.84l-3.48-7.7h-18.37l-3.43,7.7c-0.17,0.39-0.62,0.84-1.29,0.84
			h-3.54C219.96,80.68,219.51,79.95,219.85,79.22z M245.3,67.31l-6.91-15.4h-0.28l-6.85,15.4H245.3z"/>
		<path class="st0" d="M266.77,41.63c0.11-0.45,0.56-0.84,1.01-0.84h0.9c0.34,0,0.84,0.28,0.96,0.62l11.74,28.71h0.22l11.69-28.71
			c0.11-0.34,0.56-0.62,0.96-0.62h0.9c0.45,0,0.9,0.39,1.01,0.84l6.91,37.76c0.17,0.79-0.22,1.29-1.01,1.29h-3.65
			c-0.51,0-0.96-0.39-1.07-0.79l-4.16-25.12c-0.06,0-0.17,0-0.17,0l-10.11,25.85c-0.11,0.34-0.45,0.62-0.96,0.62h-1.01
			c-0.45,0-0.84-0.28-0.96-0.62L269.8,54.78c-0.06,0-0.17,0-0.22,0l-4.05,25.12c-0.06,0.39-0.56,0.79-1.01,0.79h-3.65
			c-0.79,0-1.18-0.51-1.07-1.29L266.77,41.63z"/>
		<path class="st0" d="M310.98,42.41c0-0.56,0.45-1.07,1.07-1.07h22.48c0.62,0,1.07,0.51,1.07,1.07v3.15c0,0.56-0.45,1.07-1.07,1.07
			h-17.76v11.46h15c0.56,0,1.07,0.51,1.07,1.07v3.15c0,0.62-0.51,1.07-1.07,1.07h-15v12.08h17.76c0.62,0,1.07,0.51,1.07,1.07v3.09
			c0,0.56-0.45,1.07-1.07,1.07h-22.48c-0.62,0-1.07-0.51-1.07-1.07V42.41z"/>
		<path class="st0" d="M343.34,42.41c0-0.56,0.45-1.07,1.07-1.07h15.28c6.74,0,12.25,5.34,12.25,12.02c0,5.17-3.43,9.44-8.32,11.41
			l7.7,14.27c0.39,0.73,0,1.63-0.96,1.63h-4.21c-0.62,0-0.96-0.28-1.18-0.73l-7.36-14.66h-8.48v14.33c0,0.56-0.51,1.07-1.07,1.07
			h-3.65c-0.62,0-1.07-0.51-1.07-1.07V42.41z M359.24,60.45c3.65,0,6.86-3.09,6.86-6.97c0-3.65-3.2-6.69-6.86-6.69h-10v13.65H359.24
			z"/>
		<path class="st0" d="M380.14,42.41c0-0.56,0.51-1.07,1.07-1.07h3.71c0.56,0,1.07,0.51,1.07,1.07v37.2c0,0.56-0.51,1.07-1.07,1.07
			h-3.71c-0.56,0-1.07-0.51-1.07-1.07V42.41z"/>
		<path class="st0" d="M414.08,40.79c5.68,0,9.78,1.91,13.6,5.23c0.51,0.45,0.51,1.12,0.06,1.57l-2.47,2.53
			c-0.39,0.51-0.9,0.51-1.4,0c-2.64-2.3-6.24-3.76-9.72-3.76c-8.04,0-14.1,6.74-14.1,14.61c0,7.87,6.12,14.55,14.16,14.55
			c4.1,0,6.97-1.63,9.66-3.71c0.51-0.39,1.01-0.34,1.35-0.06l2.58,2.53c0.45,0.39,0.34,1.12-0.06,1.52
			c-3.82,3.71-8.65,5.45-13.65,5.45c-11.24,0-20.28-8.93-20.28-20.17C393.79,49.83,402.84,40.79,414.08,40.79z"/>
		<path class="st0" d="M430.59,79.22l17.25-37.81c0.17-0.34,0.67-0.62,0.96-0.62h0.56c0.28,0,0.79,0.28,0.96,0.62l17.14,37.81
			c0.34,0.73-0.11,1.46-0.96,1.46h-3.54c-0.67,0-1.07-0.34-1.29-0.84l-3.48-7.7h-18.37l-3.43,7.7c-0.17,0.39-0.62,0.84-1.29,0.84
			h-3.54C430.71,80.68,430.26,79.95,430.59,79.22z M456.05,67.31l-6.91-15.4h-0.28L442,67.31H456.05z"/>
	</g>
	<g>
		
			<linearGradient id="SVGID_1_" gradientUnits="userSpaceOnUse" x1="-442.244" y1="-818.2754" x2="-370.3664" y2="-910.5569" gradientTransform="matrix(0.9802 0.1978 -0.1978 0.9802 291.3855 1011.6613)">
			<stop  offset="0.4837" style="stop-color:#46B7A9"/>
			<stop  offset="0.9407" style="stop-color:#005AA6"/>
		</linearGradient>
		<path class="st1" d="M79.74,2.48c23.54,0.52,45.52,15.1,54.31,38.49c11.22,29.83-3.11,63.02-32.1,75.48
			c0,0,21.04-13.32,22.24-27.16c1.82-20.91-7.77-26.06-15.47-35.04c-11.56-13.47-7.46-17.6-1.17-15.43
			c5.32,1.83,10.58,7.6,10.53,3.42c-0.21-17.73-17.2-27.64-34.73-32.06C77.64,8.73,76.52,2.41,79.74,2.48z"/>
		
			<linearGradient id="SVGID_2_" gradientUnits="userSpaceOnUse" x1="-455.4604" y1="-828.5695" x2="-383.5827" y2="-920.8511" gradientTransform="matrix(0.9802 0.1978 -0.1978 0.9802 291.3855 1011.6613)">
			<stop  offset="0.4837" style="stop-color:#46B7A9"/>
			<stop  offset="0.9407" style="stop-color:#005AA6"/>
		</linearGradient>
		<path class="st2" d="M78.01,120.72c-23.45,2.12-46.92-9.92-58.28-32.18C5.24,60.15,15.78,25.57,43.19,9.95
			c0,0-19.42,15.59-19.07,29.48c0.53,20.98,10.63,25.03,19.29,33.09c12.99,12.09,9.38,16.65,2.89,15.2
			c-5.49-1.23-11.36-6.37-10.85-2.23c2.19,17.6,20.19,25.54,38.1,27.98C79.39,114.27,81.21,120.43,78.01,120.72z"/>
		
			<linearGradient id="SVGID_3_" gradientUnits="userSpaceOnUse" x1="-454.6125" y1="-827.9091" x2="-382.7349" y2="-920.1907" gradientTransform="matrix(0.9802 0.1978 -0.1978 0.9802 291.3855 1011.6613)">
			<stop  offset="0.4837" style="stop-color:#46B7A9"/>
			<stop  offset="0.9407" style="stop-color:#005AA6"/>
		</linearGradient>
		<path class="st3" d="M91.13,105.96c-1.3-2.49-1.6-4.91-1.26-7.34c0.08-0.55,0.13-1.1,0.21-1.65c0.43-2.86,0.36-5.97,1.77-8.34
			c0.58-0.98,1.08-2.04,1.65-3.03c1.49-2.59,2.06-5.56,1.32-9.11c-0.62-2.98-0.21-5.58,0.88-7.89c0.98-2.08,2.05-4.08,3.04-6.15
			c0.28-0.58,0.53-1.23,0.62-1.92c0.36-2.64-0.04-5.36-1-8.14c-1.06-3.06-1.2-5.98-0.58-8.79c0.31-1.43,0.62-2.89,0.69-4.4
			c0.09-2.05-0.87-3.7-2.6-4.84c-1.67-1.1-3.24-1.18-4.79-0.62c-0.74,0.27-13.27-0.47-14.26-2.61c-0.57-0.59-1.13-1.5-1.72-1.69
			c-1.41-0.45-10.6-1.55-11.98-0.97c-0.81,0.35-1.81,0.52-2.74,0.33c-2.67-0.56-4.89,0.05-6.89,1.42c-1.85,1.26-3.97,1.76-6.34,1.63
			c-0.9-0.05-1.71,0.11-2.44,0.41c-0.12-0.23-0.23-0.46-0.31-0.7c-0.62-1.8,1.14-3.35,3.79-3.37c0.99-0.01,1.98,0.09,2.98,0.12
			c2.81,0.09,3.94-1.01,2.86-2.82c-0.3-0.5-0.83-0.96-0.99-1.48c-0.19-0.61-0.41-1.39-0.02-1.86c0.27-0.32,1.65,0.03,2.38-0.3
			c7.11-3.26,0.98-11.53,4.79-11.42c1.94,0.05,3.87,0.3,5.8,0.42c0.39,0.02,0.99-0.03,1.2-0.21c2.65-2.36,5.07-4.82,6.06-7.8
			c0.21-0.64,0.3-1.23,0.27-1.78C65.07,0.98,56.92,2.7,49.48,5.94c-0.84,2.41-1.39,4.86-1.1,7.39c0.17,1.51,0.38,3.06-0.98,4.39
			c-1.21,1.19-1.31,2.44-0.78,3.74c0.52,1.29,0.23,2.48-0.73,3.61c-0.87,1.03-1.84,2.02-2.69,3.06c-1.45,1.75-1.79,3.52-0.24,5.28
			c-1.57,1.49-2.58,3.91-3.1,6.64c-1.38,7.37,2.59,9.6,2.34,11.1c-0.2,1.2-0.59,2.33-0.64,3.56c-0.05,1.29,0.09,2.69,0.4,4.02
			c0.23,1.01,0.9,1.98,1.29,3c1.14,2.94,3.1,4.64,5.6,5.61c2.03,0.79,3.94,1.99,5.7,3.63c2.1,1.97,4.38,2.89,6.78,3.15
			c1.43,0.16,2.87,0.33,4.31,0.59c1.52,0.28,3.07,0.96,4.16,2.45c2.65,3.63,5.2,7.38,6.47,11.78c0.85,2.94,1.9,5.74,3.62,8.37
			c0.66,1.01,1.05,2.31,1.36,3.49c1.18,4.41,3.83,7.15,7.4,8.85c1.13,0.54,2.32,0.7,3.04-0.3
			C92.43,108.34,91.71,107.06,91.13,105.96z"/>
	</g>
</g>
</svg>
