<?xml version="1.0" encoding="utf-8"?>
<!-- Generator: Adobe Illustrator 24.1.1, SVG Export Plug-In . SVG Version: 6.00 Build 0)  -->
<svg version="1.1" id="Capa_1" xmlns="http://www.w3.org/2000/svg" xmlns:xlink="http://www.w3.org/1999/xlink" x="0px" y="0px"
	 viewBox="0 0 541.7 144.8" style="enable-background:new 0 0 541.7 144.8;" xml:space="preserve">
<style type="text/css">
	.st0{fill:#E40C21;}
	.st1{fill:#1E1E1C;}
	.st2{fill:#020203;}
</style>
<path class="st0" d="M435.7,32.8h-19.9v57h20v-32c0.3-7.4,1-13.1,9.1-13.1c8.8,0,7.6,9.7,6.9,14.9v30.2h21V53.6
	c0-22.7-17.6-22.4-20.7-22.4c-6.2,0.2-12.1,2.9-16.3,7.5L435.7,32.8z"/>
<path class="st0" d="M344.8,57.4l18.7-24.6H386c-1.8,2.5-18.5,24-18.5,24l21.2,33H364c-6.2-10.2-12.6-20.9-19.4-31.1v31.1h-21v-82
	h21L344.8,57.4L344.8,57.4z"/>
<path class="st0" d="M235.8,32.8v5.8c0,0-5.8-5.8-9.7-6.9c-8.5-2.4-19.9,0.8-27.3,7.7c-8.6,8.2-11.5,20.6-7.5,31.7
	c3.4,8.8,11.9,17.3,21.4,18.9c8.6,1.4,18.3,0.4,24.1-6.6v5.4h20v-56L235.8,32.8L235.8,32.8z M223.7,76.1
	c-7.4-0.1-13.4-6.8-13.4-15.3s5.8-15.5,13.4-15.2c7.1,0.3,12.7,6.6,12.7,15S231.2,76.2,223.7,76.1L223.7,76.1z"/>
<path class="st0" d="M521.8,32.8v6c-3.9-5.7-10.1-7.9-16.7-7.9c-17.2,0-28.9,14.2-28.9,31c0,16.6,11.3,29.2,27.7,29.2
	c7.5,0,12.9-2.3,17.8-7.3v2.5c0,9.2-2,16.2-12.7,16.2c-2,0-3.9-0.5-5.7-1.3s-3.2-2.4-3.7-4.3h-22.4c1.8,15,19.1,21.9,32,21.9
	c20.7,0,32.5-9.8,32.5-34.1V32.8H521.8z M508.6,76.1c-7.2,0.1-13-5.7-13.2-15c-0.2-8.3,5.7-15.6,13.2-15.1
	c7.3,0.5,13.2,6.7,13.2,15.1S515.9,76,508.6,76.1L508.6,76.1z"/>
<path class="st0" d="M281.8,32.8h-20v57h20V58.4c0-7.4,1-13,8.6-13.1c7.8,0,7.4,8.8,7.4,13.9c0,1.1,0,30.6,0,30.6h21V53.6
	c-0.1-22.7-17.7-22.5-20.7-22.5c-6.2,0.2-12.1,2.9-16.3,7.6V32.8z"/>
<path class="st0" d="M281.8,32.8h-20v57h20V58.4c0-7.4,1-13,8.6-13.1c7.8,0,7.4,8.8,7.4,13.9c0,1.1,0,30.6,0,30.6h21V53.6
	c-0.1-22.7-17.7-22.5-20.7-22.5c-6.2,0.2-12.1,2.9-16.3,7.6V32.8z"/>
<rect x="123.8" y="7.8" class="st1" width="21" height="81"/>
<path class="st1" d="M97.5,16.4C97.8,10,103.3,5,109.8,5.3c6,0.3,10.8,5.1,11.1,11.1c-0.3,6.5-5.8,11.4-12.3,11.1
	C102.6,27.2,97.8,22.4,97.5,16.4"/>
<rect x="98.8" y="32.8" class="st1" width="21" height="57"/>
<path class="st1" d="M47.1,0C21.1,0,0,20.3,0,45.4s21.1,45.4,47.1,45.4s47.1-20.3,47.1-45.4S73.1,0,47.1,0z M47.1,69.2
	c-13-0.2-23.5-10.9-23.3-24s10.9-23.5,24-23.3c12.9,0.2,23.3,10.7,23.3,23.7C71,58.7,60.3,69.3,47.1,69.2z"/>
<path class="st0" d="M146.8,33.1c6.4,0.1,12-5.8,12-11.7c0,0,0-3.7,0-5.6h18v17h12v14h-12c0,4,0,14.9,0,18.1c0,7.2,2.2,8.9,5.8,8.9
	h6.2v17h-17.3c-14,0-14.7-10.7-14.7-13.2V46.8h-10V33.1L146.8,33.1z"/>
<path class="st0" d="M387.6,16.4c0.3-6.5,5.7-11.5,12.2-11.2c6.1,0.3,11,5.1,11.2,11.2c-0.3,6.5-5.7,11.5-12.2,11.2
	C392.7,27.4,387.8,22.5,387.6,16.4"/>
<rect x="388.8" y="32.8" class="st0" width="21" height="57"/>
<path class="st0" d="M39,123.8c9.1,13.2,24.2,21.1,40.3,21h65.5v-21H39z"/>
<path class="st0" d="M414.8,123.8v21h65.6c16.1,0.1,31.1-7.8,40.3-21C520.6,123.8,414.8,123.8,414.8,123.8z"/>
<g>
	<path class="st2" d="M155,141.1"/>
	<path class="st2" d="M517.3,139"/>
</g>
<g>
	<path class="st2" d="M179.9,140.8h-9.1l-1.5,4h-5.5l9-19h5.4l8.8,19h-5.8L179.9,140.8z M178.4,137.8l-3-7l-3,7H178.4z"/>
	<path class="st2" d="M227.7,144.8h-3.9v-12.9l-5.2,10.9H215l-5.2-10.9v12.9h-5v-19h5.8l5.7,11.3l5.7-11.3h5.8L227.7,144.8
		L227.7,144.8z"/>
	<path class="st2" d="M261.8,129.8h-10v4h10v3h-10v4h11v4h-17v-19h16V129.8z"/>
	<path class="st2" d="M291.6,144.8l-2.9-5h-0.1h-3.8v5h-5v-19h8.8c2.6,0,4.6,0.6,6,1.7c1.4,1.1,2.2,2.8,2.2,4.9
		c0,2.9-1.2,4.9-3.6,6.1l4.2,6.2h-5.8V144.8z M284.8,135.8h3.9c1.1,0,2-0.3,2.7-0.8c0.6-0.5,1-1.3,1-2.3s-0.3-1.7-1-2.2
		c-0.6-0.5-1.5-0.8-2.7-0.8h-3.9V135.8z"/>
	<path class="st2" d="M319.8,144.8h-5v-19h5V144.8z"/>
	<path class="st2" d="M348.9,125.9c1.5,0,3.1,0.3,4.6,0.9c1.5,0.6,2.8,1.3,3.8,2.3l-3.1,3.3c-0.7-0.8-1.5-1.4-2.4-1.8
		c-0.9-0.4-1.9-0.7-2.8-0.7c-1.6,0-3,0.5-4.1,1.6s-1.7,2.3-1.7,3.9s0.6,2.9,1.7,4c1.1,1.1,2.5,1.6,4.1,1.6c0.9,0,1.8-0.2,2.7-0.6
		c0.9-0.4,1.8-0.9,2.5-1.6l3.1,3c-1.1,1-2.5,1.9-4,2.5s-3.1,0.9-4.6,0.9c-3.1,0-5.7-0.9-7.8-2.8c-2.1-1.8-3.1-4.2-3.1-6.9
		s1.1-5,3.2-6.8C343,126.8,345.7,125.9,348.9,125.9z"/>
	<path class="st2" d="M389.3,140.8h-9.1l-1.5,4h-5.5l9-19h5.4l8.8,19h-5.6L389.3,140.8z M387.8,137.8l-3-7l-3,7H387.8z"/>
</g>
</svg>
